<svg width="280.64mm" height="282.07mm" version="1.1" viewBox="0 0 280.64 282.07" xmlns="http://www.w3.org/2000/svg">
 <ellipse cx="140.32" cy="141.04" rx="140.32" ry="141.03" fill="#ff6600"/>
 <path transform="scale(.26458)" d="m871.33 533.06-681.98 56.834 523.19 443.32a530.34 533.05 0 0 0 332.04-372.45l-173.24-127.7z" fill="#803300"/>
 <path d="m121.52 191.8v-1.8796h-7.5183v-3.7592h-7.5183v-3.7592h-7.5183v-3.7592h-7.5183v-3.7592h-7.5183v-3.7592h-7.5183v-3.7592h-7.5183v-3.7592h-7.5183v-3.7592h-3.7592v-3.7592h-3.7592v-7.5183h3.7592v-3.7592h7.5183v3.7592h7.5183v3.7592h7.5183v3.7592h7.5183v3.7592h7.5183v3.7592h7.5183v3.7592h7.5183v3.7592h7.5183v3.7592h7.5183v-3.7592h7.5183v-3.7592h7.5183v-3.7592h7.5183v-3.7592h7.5183v-3.7592h7.5183v-3.7592h7.5183v-3.7592h7.5183v-3.7592h7.5183v-3.7592h7.5183v-3.7592h7.5183v-3.7592h7.5183v-3.7592h7.5183v-3.7592h7.5183v-3.7592h3.7592v7.5183h3.7592v11.277h-3.7592v3.7592h-7.5183v3.7592h-7.5183v3.7592h-7.5183v3.7592h-7.5183v3.7592h-7.5183v3.7592h-7.5183v3.7592h-7.5183v3.7592h-7.5183v3.7592h-7.5183v3.7592h-7.5183v3.7592h-7.5183v3.7592h-7.5183v3.7592h-7.5183v3.7592h-7.5183z" fill="#ffffff" stroke-width=".37592"/>
 <path d="m159.12 139.16v-1.8796h-7.5183v-3.7592h-7.5183v-3.7592h-7.5183v-3.7592h-7.5183v-3.7592h-7.5183v-7.5183h3.7592v-3.7592h7.5183v-3.7592h7.5183v-3.7592h7.5183v-3.7592h7.5183v-3.7592h7.5183v3.7592h7.5183v3.7592h7.5183v3.7592h7.5183v3.7592h7.5183v3.7592h7.5183v3.7592h3.7592v3.7592h-3.7592v3.7592h-7.5183v3.7592h-7.5183v3.7592h-7.5183v3.7592h-7.5183v3.7592h-11.277z" fill="#000000" stroke-width=".37592"/>
 <path d="m117.77 169.23v-1.8796h-7.5183v-3.7592h-7.5183v-3.7592h-7.5183v-3.7592h-7.5183v-3.7592h-7.5183v-3.7592h-7.5183v-3.7592h-7.5183v-3.7592h-7.5183v-3.7592h7.5183v-3.7592h7.5183v-3.7592h7.5183v-3.7592h7.5183v-3.7592h7.5183v-3.7592h7.5183v-3.7592h7.5183v-3.7592h7.5183v-3.7592h7.5183v-3.7592h7.5183v-3.7592h7.5183v-3.7592h11.277v-3.7592h3.7592v-3.7592h7.5183v3.7592h7.5183v3.7592h7.5183v3.7592h7.5183v3.7592h7.5183v3.7592h7.5183v3.7592h7.5183v3.7592h7.5183v3.7592h7.5183v3.7592h-7.5183v3.7592h-7.5183v3.7592h-7.5183v3.7592h-7.5183v3.7592h-7.5183v3.7592h-7.5183v3.7592h-7.5183v3.7592h-7.5183v3.7592h-7.5183v3.7592h-7.5183v3.7592h-7.5183v3.7592h-7.5183v3.7592h-7.5183v3.7592h-7.5183zm52.628-30.072v-1.8796h7.5183v-3.7592h7.5183v-3.7592h7.5183v-3.7592h7.5183v-3.7592h3.7592v-3.7592h-3.7592v-3.7592h-7.5183v-3.7592h-7.5183v-3.7592h-7.5183v-3.7592h-7.5183v-3.7592h-7.5183v-3.7592h-7.5183v3.7592h-7.5183v3.7592h-7.5183v3.7592h-7.5183v3.7592h-7.5183v3.7592h-3.7592v7.5183h7.5183v3.7592h7.5183v3.7592h7.5183v3.7592h7.5183v3.7592h7.5183v3.7592h11.277z" fill="#008000" stroke-width=".37592"/>
 <path d="m121.52 195.55v-1.8796h-7.5183v-3.7592h-7.5183v-3.7592h-7.5183v-3.7592h-7.5183v-3.7592h-7.5183v-3.7592h-7.5183v-3.7592h-7.5183v-3.7592h-7.5183v-3.7592h-7.5183v-7.5183h-3.7592v-15.037h3.7592v-3.7592h3.7592v-3.7592h7.5183v-3.7592h7.5183v-3.7592h7.5183v-3.7592h7.5183v-3.7592h7.5183v-3.7592h7.5183v-3.7592h7.5183v-3.7592h7.5183v-3.7592h7.5183v-3.7592h7.5183v-3.7592h7.5183v-3.7592h7.5183v-3.7592h7.5183v-3.7592h7.5183v3.7592h7.5183v3.7592h7.5183v3.7592h7.5183v3.7592h7.5183v3.7592h7.5183v3.7592h7.5183v3.7592h7.5183v3.7592h7.5183v3.7592h3.7592v3.7592h-3.7592v3.7592h-7.5183v3.7592h-7.5183v3.7592h-7.5183v3.7592h-7.5183v3.7592h-7.5183v3.7592h-7.5183v3.7592h-7.5183v3.7592h-7.5183v3.7592h-7.5183v3.7592h-7.5183v3.7592h-7.5183v3.7592h-7.5183v3.7592h-7.5183v3.7592h-7.5183v-3.7592h-7.5183v-3.7592h-7.5183v-3.7592h-7.5183v-3.7592h-7.5183v-3.7592h-7.5183v-3.7592h-7.5183v-3.7592h-7.5183v-3.7592h-7.5183v3.7592h-3.7592v7.5183h3.7592v3.7592h3.7592v3.7592h7.5183v3.7592h7.5183v3.7592h7.5183v3.7592h7.5183v3.7592h7.5183v3.7592h7.5183v3.7592h7.5183v3.7592h7.5183v3.7592h7.5183v-3.7592h7.5183v-3.7592h7.5183v-3.7592h7.5183v-3.7592h7.5183v-3.7592h7.5183v-3.7592h7.5183v-3.7592h7.5183v-3.7592h7.5183v-3.7592h7.5183v-3.7592h7.5183v-3.7592h7.5183v-3.7592h7.5183v-3.7592h7.5183v-3.7592h3.7592v3.7592h-3.7592v3.7592h-7.5183v3.7592h-7.5183v3.7592h-7.5183v3.7592h-7.5183v3.7592h-7.5183v3.7592h-7.5183v3.7592h-7.5183v3.7592h-7.5183v3.7592h-7.5183v3.7592h-7.5183v3.7592h-7.5183v3.7592h-7.5183v3.7592h-7.5183v3.7592h-7.5183zm3.7592-26.314v-1.8796h7.5183v-3.7592h7.5183v-3.7592h7.5183v-3.7592h7.5183v-3.7592h7.5183v-3.7592h7.5183v-3.7592h7.5183v-3.7592h7.5183v-3.7592h7.5183v-3.7592h7.5183v-3.7592h7.5183v-3.7592h7.5183v-3.7592h7.5183v-3.7592h-7.5183v-3.7592h-7.5183v-3.7592h-7.5183v-3.7592h-7.5183v-3.7592h-7.5183v-3.7592h-7.5183v-3.7592h-7.5183v-3.7592h-7.5183v-3.7592h-7.5183v3.7592h-3.7592v3.7592h-11.277v3.7592h-7.5183v3.7592h-7.5183v3.7592h-7.5183v3.7592h-7.5183v3.7592h-7.5183v3.7592h-7.5183v3.7592h-7.5183v3.7592h-7.5183v3.7592h-7.5183v3.7592h-7.5183v3.7592h-7.5183v3.7592h7.5183v3.7592h7.5183v3.7592h7.5183v3.7592h7.5183v3.7592h7.5183v3.7592h7.5183v3.7592h7.5183v3.7592h7.5183v3.7592h7.5183z" fill="#ad9ee4" stroke-width=".37592"/>
 <flowRoot transform="matrix(.26458 0 0 .26458 234.81 158.51)" fill="#000000" font-family="sans-serif" font-size="16px" letter-spacing="0px" stroke-width="1px" word-spacing="0px" style="line-height:125%" xml:space="preserve"><flowRegion><rect x="-1271.4" y="-654.62" width="1777.1" height="1400"/></flowRegion><flowPara/></flowRoot>
</svg>
